<svg data-v-423bf9ae="" xmlns="http://www.w3.org/2000/svg" viewBox="0 0 461 92" class="iconLeft"><!----><!----><!----><g data-v-423bf9ae="" id="6d1fb4eb-a665-4bc8-bde6-2846efded88d" fill="#193655" transform="matrix(5.830904006958008,0,0,5.830904006958008,117.27128601074219,2.8603837490081787)"><path d="M3.46 12.46L3.46 12.46Q2.06 12.46 1.29 11.50L1.29 11.50L1.29 11.50Q0.52 10.54 0.52 8.60L0.52 8.60L0.52 8.60Q0.52 6.69 1.29 5.73L1.29 5.73L1.29 5.73Q2.07 4.76 3.36 4.76L3.36 4.76L3.36 4.76Q4.10 4.76 4.67 5.03L4.67 5.03L4.67 5.03Q5.24 5.29 5.56 5.78L5.56 5.78L5.64 5.78L5.64 2.17L7.56 2.17L7.56 12.29L5.92 12.29L5.80 11.33L5.70 11.33L5.70 11.33Q5.35 11.89 4.76 12.17L4.76 12.17L4.76 12.17Q4.17 12.46 3.46 12.46L3.46 12.46ZM4.07 10.79L4.07 10.79Q5.64 10.79 5.64 8.74L5.64 8.74L5.64 8.51L5.64 8.51Q5.64 6.43 4.07 6.43L4.07 6.43L4.07 6.43Q3.22 6.43 2.86 6.94L2.86 6.94L2.86 6.94Q2.49 7.45 2.49 8.48L2.49 8.48L2.49 8.74L2.49 8.74Q2.49 9.77 2.86 10.28L2.86 10.28L2.86 10.28Q3.22 10.79 4.07 10.79L4.07 10.79ZM13.65 12.46L13.65 12.46Q12.94 12.46 12.35 12.17L12.35 12.17L12.35 12.17Q11.76 11.89 11.41 11.33L11.41 11.33L11.31 11.33L11.19 12.29L9.55 12.29L9.55 2.17L11.47 2.17L11.47 5.78L11.55 5.78L11.55 5.78Q11.87 5.29 12.44 5.03L12.44 5.03L12.44 5.03Q13.01 4.76 13.75 4.76L13.75 4.76L13.75 4.76Q15.04 4.76 15.81 5.73L15.81 5.73L15.81 5.73Q16.59 6.69 16.59 8.60L16.59 8.60L16.59 8.60Q16.59 10.54 15.82 11.50L15.82 11.50L15.82 11.50Q15.05 12.46 13.65 12.46L13.65 12.46ZM13.03 10.79L13.03 10.79Q13.89 10.79 14.25 10.28L14.25 10.28L14.25 10.28Q14.62 9.77 14.62 8.74L14.62 8.74L14.62 8.48L14.62 8.48Q14.62 7.45 14.25 6.94L14.25 6.94L14.25 6.94Q13.89 6.43 13.03 6.43L13.03 6.43L13.03 6.43Q11.47 6.43 11.47 8.51L11.47 8.51L11.47 8.74L11.47 8.74Q11.47 10.79 13.03 10.79L13.03 10.79ZM21.15 12.46L21.15 12.46Q19.39 12.46 18.52 11.52L18.52 11.52L18.52 11.52Q17.64 10.58 17.64 8.61L17.64 8.61L17.64 8.61Q17.64 6.65 18.52 5.71L18.52 5.71L18.52 5.71Q19.39 4.76 21.15 4.76L21.15 4.76L21.15 4.76Q22.62 4.76 23.50 5.51L23.50 5.51L23.50 5.51Q24.37 6.26 24.37 7.70L24.37 7.70L22.44 7.70L22.44 7.70Q22.44 7.03 22.09 6.66L22.09 6.66L22.09 6.66Q21.74 6.30 21.11 6.30L21.11 6.30L21.11 6.30Q20.33 6.30 19.96 6.85L19.96 6.85L19.96 6.85Q19.59 7.41 19.59 8.50L19.59 8.50L19.59 8.72L19.59 8.72Q19.59 9.81 19.97 10.37L19.97 10.37L19.97 10.37Q20.36 10.92 21.21 10.92L21.21 10.92L21.21 10.92Q21.81 10.92 22.17 10.55L22.17 10.55L22.17 10.55Q22.53 10.18 22.53 9.52L22.53 9.52L24.37 9.52L24.37 9.52Q24.37 10.96 23.51 11.71L23.51 11.71L23.51 11.71Q22.64 12.46 21.15 12.46L21.15 12.46ZM25.89 12.29L25.89 2.17L27.80 2.17L27.80 12.29L25.89 12.29ZM33.05 12.46L33.05 12.46Q31.16 12.46 30.24 11.52L30.24 11.52L30.24 11.52Q29.32 10.58 29.32 8.61L29.32 8.61L29.32 8.61Q29.32 6.64 30.24 5.70L30.24 5.70L30.24 5.70Q31.16 4.76 33.05 4.76L33.05 4.76L33.05 4.76Q34.94 4.76 35.88 5.70L35.88 5.70L35.88 5.70Q36.81 6.64 36.81 8.61L36.81 8.61L36.81 8.61Q36.81 10.58 35.88 11.52L35.88 11.52L35.88 11.52Q34.94 12.46 33.05 12.46L33.05 12.46ZM33.05 10.89L33.05 10.89Q33.99 10.89 34.41 10.35L34.41 10.35L34.41 10.35Q34.83 9.81 34.83 8.72L34.83 8.72L34.83 8.50L34.83 8.50Q34.83 7.41 34.41 6.87L34.41 6.87L34.41 6.87Q33.99 6.33 33.05 6.33L33.05 6.33L33.05 6.33Q32.12 6.33 31.70 6.87L31.70 6.87L31.70 6.87Q31.29 7.41 31.29 8.50L31.29 8.50L31.29 8.72L31.29 8.72Q31.29 9.81 31.70 10.35L31.70 10.35L31.70 10.35Q32.12 10.89 33.05 10.89L33.05 10.89ZM38.33 12.29L38.33 4.93L39.97 4.93L40.11 5.89L40.21 5.89L40.21 5.89Q41.10 4.76 42.50 4.76L42.50 4.76L42.50 4.76Q43.64 4.76 44.29 5.38L44.29 5.38L44.29 5.38Q44.94 5.99 44.94 7.35L44.94 7.35L44.94 12.29L43.02 12.29L43.02 7.76L43.02 7.76Q43.02 7.07 42.70 6.76L42.70 6.76L42.70 6.76Q42.38 6.45 41.75 6.45L41.75 6.45L41.75 6.45Q41.10 6.45 40.68 6.91L40.68 6.91L40.68 6.91Q40.25 7.36 40.25 8.04L40.25 8.04L40.25 12.29L38.33 12.29ZM49.92 12.46L49.92 12.46Q48.15 12.46 47.27 11.52L47.27 11.52L47.27 11.52Q46.40 10.58 46.40 8.61L46.40 8.61L46.40 8.61Q46.40 6.64 47.27 5.70L47.27 5.70L47.27 5.70Q48.15 4.76 49.92 4.76L49.92 4.76L49.92 4.76Q51.56 4.76 52.37 5.71L52.37 5.71L52.37 5.71Q53.19 6.65 53.19 8.61L53.19 8.61L53.19 9.06L48.34 9.06L48.34 9.06Q48.37 10.04 48.73 10.51L48.73 10.51L48.73 10.51Q49.10 10.98 49.95 10.98L49.95 10.98L49.95 10.98Q50.55 10.98 50.93 10.64L50.93 10.64L50.93 10.64Q51.30 10.30 51.30 9.69L51.30 9.69L53.19 9.69L53.19 9.69Q53.19 11.07 52.29 11.77L52.29 11.77L52.29 11.77Q51.39 12.46 49.92 12.46L49.92 12.46ZM48.37 7.78L51.20 7.78L51.20 7.78Q51.20 6.26 49.92 6.26L49.92 6.26L49.92 6.26Q49.20 6.26 48.83 6.64L48.83 6.64L48.83 6.64Q48.45 7.01 48.37 7.78L48.37 7.78ZM54.67 12.29L54.67 4.93L56.31 4.93L56.46 6.12L56.56 6.12L56.56 6.12Q56.80 5.49 57.18 5.12L57.18 5.12L57.18 5.12Q57.55 4.76 58.17 4.76L58.17 4.76L58.17 4.76Q58.44 4.76 58.64 4.81L58.64 4.81L58.64 4.81Q58.84 4.86 58.90 4.89L58.90 4.89L58.90 6.68L58.37 6.68L58.37 6.68Q57.43 6.68 57.01 7.19L57.01 7.19L57.01 7.19Q56.59 7.70 56.59 8.74L56.59 8.74L56.59 12.29L54.67 12.29Z"></path></g><defs data-v-423bf9ae=""><linearGradient data-v-423bf9ae="" gradientTransform="rotate(25)" id="80515df7-2356-4db2-b3b4-94fd882f5d14" x1="0%" y1="0%" x2="100%" y2="0%"><stop data-v-423bf9ae="" offset="0%" style="stop-color: rgb(81, 164, 251); stop-opacity: 1;"></stop><stop data-v-423bf9ae="" offset="100%" style="stop-color: rgb(81, 164, 251); stop-opacity: 1;"></stop></linearGradient></defs><g data-v-423bf9ae="" id="8462b94a-25ef-4e04-aa20-a32a073dd97c" transform="matrix(1.0056887865066528,0,0,1.0056887865066528,0.8483115434646606,-4.5418925285339355)" stroke="none" fill="url(#80515df7-2356-4db2-b3b4-94fd882f5d14)"><path d="M39.5 48.268c-1.45 0-2.5 1.176-2.5 2.625v5.25c0 1.449 1.05 2.625 2.5 2.625 1.449 0 2.5-1.176 2.5-2.625v-5.25c0-1.45-1.051-2.625-2.5-2.625zM60.5 48.268c-1.449 0-2.5 1.176-2.5 2.625v5.25c0 1.449 1.051 2.625 2.5 2.625s2.5-1.176 2.5-2.625v-5.25c0-1.45-1.051-2.625-2.5-2.625z"></path><path d="M83.932 33.384c-.707-8.284-7.678-14.811-16.141-14.811-.702 0-1.4.045-2.092.135C64.498 10.954 57.777 5 49.692 5s-14.805 5.954-16.007 13.708a16.364 16.364 0 0 0-2.091-.135c-8.533 0-15.545 6.632-16.155 15.012C10.944 35.907 0 43.408 0 61.391a2.625 2.625 0 0 0 2.625 2.625c9.205 0 15.179-3.291 18.779-6.422.418 4.08 1.268 9.557 2.994 15.078 4.669 14.941 13.477 22.84 25.471 22.84s20.803-7.896 25.471-22.84c1.727-5.521 2.576-10.998 2.994-15.078 3.602 3.131 9.575 6.422 18.777 6.422a2.624 2.624 0 0 0 2.625-2.625c0-18.59-11.355-25.869-15.804-28.007zm-5.47 16.335a2.623 2.623 0 0 0-2.95-1.38c-1.184.279-2.269 1.336-2.269 2.554 0 .379-.243 36.381-21.243 39.19v-1.36l4.727-4.479c1.024-1.025 1.148-2.688.123-3.711a2.545 2.545 0 0 0-3.647 0l-3.364 3.393-3.378-3.393a2.613 2.613 0 0 0-3.704 0c-1.025 1.023-1.143 2.686-.118 3.711L47 88.725v1.357C27 87.27 26.125 51.27 26.125 50.893c0-1.218-.776-2.273-1.961-2.554a2.346 2.346 0 0 0-.572-.071c-.977 0-1.88.548-2.332 1.451-.043.084-4.068 7.87-15.919 8.929 1.125-15.297 11.538-20.117 13.719-20.96a2.625 2.625 0 0 0 1.586-3.141c.121-5.934 4.986-10.724 10.948-10.724 1.256 0 2.491.213 3.67.632a2.623 2.623 0 0 0 3.5-2.623c-.012-.21-.02-.421-.02-.634 0-6.037 4.911-10.949 10.948-10.949 6.037 0 10.949 4.912 10.949 10.949 0 .213-.009.424-.021.634a2.627 2.627 0 0 0 3.5 2.623 10.932 10.932 0 0 1 3.67-.632c5.979 0 10.858 4.823 10.946 10.784a2.632 2.632 0 0 0 .471 2.114 2.63 2.63 0 0 0 1.505.98c1.54.601 12.503 5.42 13.675 20.947-11.699-1.041-15.755-8.599-15.925-8.929z"></path></g><!----></svg>